<?xml version="1.0" encoding="UTF-8"?> <svg xmlns="http://www.w3.org/2000/svg" width="421" height="304" viewBox="0 0 421 304" fill="none"> <path d="M297.361 76.4341V7H7V297.361H297.361V234.239" stroke="black" stroke-width="12.6244"></path> <path d="M186.257 82.6443C201.574 82.6443 215.36 85.6489 227.614 91.6581C239.868 97.5495 249.471 105.739 256.423 116.225C263.493 126.594 267.027 138.318 267.027 151.397C267.027 164.358 263.551 176.023 256.6 186.391C249.648 196.76 239.986 204.949 227.614 210.959C215.36 216.85 201.574 219.796 186.257 219.796C172.824 219.796 160.217 217.321 148.434 212.372C136.769 207.424 127.107 200.59 119.448 191.87C111.79 183.033 106.959 173.018 104.956 161.824H86.928V215.554H57.2354V84.7652H86.928V136.727H105.839C108.432 126.241 113.557 116.932 121.216 108.802C128.992 100.554 138.536 94.1325 149.848 89.5372C161.159 84.9419 173.296 82.6443 186.257 82.6443ZM186.257 195.405C194.858 195.405 202.988 193.697 210.647 190.28C218.306 186.863 224.492 181.855 229.205 175.257C233.918 168.541 236.274 160.587 236.274 151.397C236.274 142.324 233.918 134.43 229.205 127.713C224.492 120.997 218.306 115.872 210.647 112.337C202.988 108.802 194.858 107.035 186.257 107.035C176.948 107.035 168.406 108.802 160.629 112.337C152.853 115.872 146.667 120.997 142.071 127.713C137.476 134.43 135.178 142.324 135.178 151.397C135.178 160.587 137.535 168.541 142.248 175.257C147.079 181.855 153.383 186.863 161.159 190.28C168.936 193.697 177.302 195.405 186.257 195.405ZM337.616 145.564L419.447 216.438H378.267L312.519 157.583V216.438H282.65V85.6489H312.519V134.606L374.909 85.6489H416.796L337.616 145.564Z" fill="black"></path> </svg> 