<?xml version="1.0" encoding="UTF-8"?> <svg xmlns="http://www.w3.org/2000/svg" width="2490" height="560" viewBox="0 0 2490 560" fill="none"> <rect x="805.125" y="20.3491" width="23.3109" height="526.826" fill="black"></rect> <path d="M952.831 153.376H1043.28V102.092H1074.61V240.093H1043.28V180.417H952.831V240.093H921.314V102.092H952.831V153.376ZM1267.94 240.093H1235.11L1219.26 210.814H1132.17L1116.32 240.093H1083.5L1158.28 102.092H1193.15L1267.94 240.093ZM1175.81 130.438L1145.97 185.266H1205.46L1175.81 130.438ZM1427.86 102.092V240.093H1396.34V127.268H1337.41C1334.68 145.046 1331.69 160.525 1328.46 173.703C1325.35 186.882 1321 199.998 1315.41 213.052C1311.06 222.252 1304.97 228.841 1297.13 232.82C1289.3 236.674 1281.28 239.098 1273.08 240.093V211.56C1281.41 211.56 1287.5 206.463 1291.35 196.268C1296.2 181.474 1299.99 166.368 1302.73 150.952C1305.59 135.536 1307.64 119.249 1308.88 102.092H1427.86ZM1529.31 99.1085C1545.47 99.1085 1560.02 102.217 1572.95 108.433C1586 114.649 1596.19 123.29 1603.53 134.355C1610.86 145.419 1614.53 157.852 1614.53 171.652C1614.53 185.328 1610.86 197.636 1603.53 208.576C1596.19 219.517 1586.06 228.158 1573.13 234.498C1560.2 240.714 1545.66 243.823 1529.49 243.823C1513.83 243.823 1499.41 240.714 1486.23 234.498C1473.05 228.158 1462.61 219.517 1454.9 208.576C1447.19 197.512 1443.34 185.203 1443.34 171.652C1443.34 157.976 1447.19 145.606 1454.9 134.541C1462.61 123.476 1472.99 114.836 1486.04 108.619C1499.22 102.279 1513.64 99.1085 1529.31 99.1085ZM1529.31 218.087C1538.38 218.087 1546.96 216.285 1555.04 212.679C1563.12 209.074 1569.65 203.79 1574.62 196.828C1579.6 189.741 1582.08 181.349 1582.08 171.652C1582.08 162.079 1579.53 153.749 1574.44 146.663C1569.46 139.576 1562.88 134.168 1554.67 130.438C1546.59 126.709 1538.01 124.844 1528.93 124.844C1519.24 124.844 1510.35 126.709 1502.27 130.438C1494.31 134.168 1487.97 139.514 1483.25 146.476C1478.52 153.438 1476.16 161.706 1476.16 171.279C1476.16 181.101 1478.58 189.555 1483.43 196.641C1488.4 203.603 1494.93 208.949 1503.01 212.679C1511.09 216.285 1519.86 218.087 1529.31 218.087ZM1749.46 102.092V127.268H1661.63V240.093H1630.11V102.092H1749.46ZM1834.35 99.1085C1850.51 99.1085 1865.06 102.217 1877.99 108.433C1891.04 114.649 1901.24 123.29 1908.57 134.355C1915.91 145.419 1919.58 157.852 1919.58 171.652C1919.58 185.328 1915.91 197.636 1908.57 208.576C1901.24 219.517 1891.11 228.158 1878.18 234.498C1865.25 240.714 1850.7 243.823 1834.54 243.823C1818.87 243.823 1804.45 240.714 1791.27 234.498C1778.1 228.158 1767.65 219.517 1759.94 208.576C1752.24 197.512 1748.38 185.203 1748.38 171.652C1748.38 157.976 1752.24 145.606 1759.94 134.541C1767.65 123.476 1778.03 114.836 1791.09 108.619C1804.27 102.279 1818.69 99.1085 1834.35 99.1085ZM1834.35 218.087C1843.43 218.087 1852.01 216.285 1860.09 212.679C1868.17 209.074 1874.7 203.79 1879.67 196.828C1884.64 189.741 1887.13 181.349 1887.13 171.652C1887.13 162.079 1884.58 153.749 1879.48 146.663C1874.51 139.576 1867.92 134.168 1859.71 130.438C1851.63 126.709 1843.06 124.844 1833.98 124.844C1824.28 124.844 1815.39 126.709 1807.31 130.438C1799.36 134.168 1793.01 139.514 1788.29 146.476C1783.57 153.438 1781.2 161.706 1781.2 171.279C1781.2 181.101 1783.63 189.555 1788.48 196.641C1793.45 203.603 1799.98 208.949 1808.06 212.679C1816.14 216.285 1824.9 218.087 1834.35 218.087ZM2069.24 167.736C2079.68 169.849 2087.58 173.517 2092.92 178.738C2098.27 183.836 2100.94 191.171 2100.94 200.744V201.49C2100.94 212.306 2098.21 220.512 2092.74 226.106C2087.39 231.701 2079.99 235.431 2070.55 237.295C2061.22 239.036 2048.85 240.031 2033.43 240.279H2033.06H2024.3L1935.16 240.093V102.092H2042.01C2056.44 102.217 2067.94 105.2 2076.51 111.044C2085.09 116.887 2089.38 125.155 2089.38 135.846V136.592C2089.38 144.674 2087.7 151.263 2084.35 156.36C2080.99 161.457 2075.95 165.249 2069.24 167.736ZM2058.42 140.882C2058.42 135.66 2057.31 131.93 2055.07 129.692C2052.83 127.33 2049.91 125.9 2046.3 125.403C2042.7 124.782 2037.48 124.471 2030.64 124.471H2030.26H1965.55V157.292L2013.85 157.852H2011.99H2030.64C2037.6 157.852 2042.76 157.665 2046.12 157.292C2049.6 156.795 2052.52 155.365 2054.88 153.003C2057.24 150.517 2058.42 146.476 2058.42 140.882ZM2036.61 216.409C2044.69 216.409 2050.72 216.098 2054.69 215.476C2058.8 214.855 2062.03 213.239 2064.39 210.628C2066.75 207.893 2067.94 203.479 2067.94 197.387C2067.94 191.544 2066.75 187.317 2064.39 184.706C2062.03 182.095 2058.8 180.541 2054.69 180.044C2050.72 179.422 2044.69 179.111 2036.61 179.111H2036.42H1965.55V216.036C1994.65 216.036 2015.53 216.16 2028.21 216.409H2036.61ZM2202.87 144.611C2214.68 144.611 2225 146.476 2233.83 150.206C2242.65 153.936 2249.49 159.406 2254.34 166.617C2259.31 173.828 2261.8 182.468 2261.8 192.539V193.284C2261.8 202.485 2259.31 210.628 2254.34 217.714C2249.49 224.801 2242.59 230.333 2233.64 234.312C2224.81 238.166 2214.62 240.093 2203.06 240.093H2117.27V102.092H2148.79V144.611H2202.5H2202.87ZM2270.94 240.093V102.092H2302.45V240.093H2270.94ZM2206.6 217.155C2213.94 217.155 2219.96 215.041 2224.69 210.814C2229.41 206.587 2231.78 200.309 2231.78 191.979C2231.78 183.401 2229.48 177.247 2224.88 173.517C2220.28 169.663 2214.18 167.736 2206.6 167.736H2206.41H2148.79V216.782C2175.27 216.782 2192.74 216.906 2201.19 217.155H2206.6ZM2448.02 181.163H2354.03V215.29L2463.69 214.731V240.093H2322.52V102.092H2463.69L2463.87 127.455H2354.03V155.987H2448.02V181.163ZM1018.85 288.092C1030.41 288.092 1040.6 290.019 1049.43 293.873C1058.38 297.727 1065.28 303.136 1070.13 310.098C1075.1 316.936 1077.59 324.892 1077.59 333.968V334.714C1077.59 349.882 1073.05 361.444 1063.98 369.401C1054.9 377.357 1041.6 381.336 1024.07 381.336H952.831V426.093H921.314V288.092H1018.85ZM1015.3 356.72C1022.39 356.72 1028.05 356.409 1032.27 355.787C1036.63 355.041 1040.29 353.114 1043.28 350.006C1046.26 346.774 1047.75 341.801 1047.75 335.087C1047.75 328.001 1046.26 322.841 1043.28 319.609C1040.29 316.252 1036.63 314.2 1032.27 313.455C1028.05 312.709 1022.39 312.336 1015.3 312.336H1008.03C1004.8 312.336 999.204 312.398 991.247 312.522C983.29 312.522 970.485 312.522 952.831 312.522V356.72H1015.12H1015.3ZM1219.47 367.163H1125.48V401.29L1235.13 400.731V426.093H1093.96V288.092H1235.13L1235.32 313.455H1125.48V341.987H1219.47V367.163ZM1252.58 288.092H1284.1H1252.58ZM1382.38 399.425H1449.7V288.092H1481.22V426.093H1252.58V288.092H1284.1V399.425H1351.05V288.092H1382.38V399.425ZM1626.86 367.163H1532.87V401.29L1642.53 400.731V426.093H1501.36V288.092H1642.53L1642.71 313.455H1532.87V341.987H1626.86V367.163ZM1691.49 339.376H1781.94V288.092H1813.27V426.093H1781.94V366.417H1691.49V426.093H1659.98V288.092H1691.49V339.376ZM1864.87 288.092V389.541L1963.71 288.092H1995.04V426.093H1963.71V324.457L1864.87 426.093H1833.35V288.092H1864.87ZM2138.75 356.347C2138.87 344.909 2138.87 339.998 2138.75 341.614V356.347ZM2165.97 425.72H2135.2V381.149H2085.22L2046.99 425.72H2008.58L2048.67 379.098C2036.49 376.487 2026.92 371.328 2019.95 363.62C2013.12 355.911 2009.7 346.152 2009.7 334.341V333.595C2009.7 324.519 2012.12 316.563 2016.97 309.725C2021.94 302.763 2028.84 297.354 2037.67 293.5C2046.62 289.646 2056.88 287.719 2068.44 287.719H2165.97V425.72ZM2041.4 335.087C2041.4 341.676 2042.83 346.525 2045.69 349.633C2048.55 352.741 2052.09 354.668 2056.32 355.414C2060.55 356.036 2066.45 356.347 2074.04 356.347H2074.22H2135.2V313.268C2116.8 313.268 2099.21 313.082 2082.43 312.709C2080.07 312.584 2077.27 312.522 2074.04 312.522C2066.45 312.522 2060.55 312.895 2056.32 313.641C2052.09 314.387 2048.55 316.376 2045.69 319.609C2042.83 322.841 2041.4 328.001 2041.4 335.087Z" fill="black"></path> <path d="M548.151 140.21V12H12V548.151H548.151V431.596" stroke="black" stroke-width="23.3109"></path> <path d="M342.997 150.86C371.281 150.86 396.736 156.408 419.364 167.504C441.991 178.383 459.722 193.504 472.559 212.867C485.613 232.013 492.14 253.661 492.14 277.811C492.14 301.744 485.722 323.283 472.885 342.429C460.049 361.575 442.208 376.696 419.364 387.792C396.736 398.671 371.281 404.11 342.997 404.11C318.194 404.11 294.914 399.541 273.158 390.403C251.618 381.265 233.778 368.646 219.636 352.546C205.494 336.229 196.574 317.735 192.875 297.066H159.587V396.277H104.76V154.777H159.587V250.724H194.507C199.293 231.361 208.757 214.173 222.899 199.161C237.259 183.931 254.882 172.073 275.768 163.588C296.655 155.103 319.065 150.86 342.997 150.86ZM342.997 359.073C358.88 359.073 373.892 355.918 388.034 349.609C402.176 343.3 413.598 334.053 422.301 321.869C431.003 309.468 435.355 294.782 435.355 277.811C435.355 261.059 431.003 246.482 422.301 234.08C413.598 221.679 402.176 212.215 388.034 205.688C373.892 199.161 358.88 195.897 342.997 195.897C325.809 195.897 310.035 199.161 295.676 205.688C281.316 212.215 269.894 221.679 261.409 234.08C252.924 246.482 248.681 261.059 248.681 277.811C248.681 294.782 253.033 309.468 261.735 321.869C270.656 334.053 282.296 343.3 296.655 349.609C311.015 355.918 326.462 359.073 342.997 359.073ZM622.482 267.042L773.583 397.909H697.543L576.14 289.234V397.909H520.987V156.408H576.14V246.808L691.343 156.408H768.688L622.482 267.042Z" fill="black"></path> </svg> 